<?xml version="1.0" encoding="UTF-8" standalone="no"?>
<!DOCTYPE svg PUBLIC "-//W3C//DTD SVG 1.1//EN" "http://www.w3.org/Graphics/SVG/1.1/DTD/svg11.dtd">
<svg width="100%" height="100%" viewBox="0 0 96 32" version="1.1" xmlns="http://www.w3.org/2000/svg" xmlns:xlink="http://www.w3.org/1999/xlink" xml:space="preserve" xmlns:serif="http://www.serif.com/" style="fill-rule:evenodd;clip-rule:evenodd;stroke-linejoin:round;stroke-miterlimit:2;">
    <g id="ArtBoard1" transform="matrix(0.959895,0,0,1,-6.82046e-15,0)">
        <rect x="0" y="0" width="100.011" height="32" style="fill:none;"/>
        <clipPath id="_clip1">
            <rect x="0" y="0" width="100.011" height="32"/>
        </clipPath>
        <g clip-path="url(#_clip1)">
            <g transform="matrix(1.56267,0,0,1,-2.96873e-16,0)">
                <g transform="matrix(0.104762,0,0,0.104296,-27.4286,-16.2133)">
                    <rect x="261.818" y="155.455" width="76.364" height="306.818" style="fill:rgb(245,245,245);"/>
                    <path d="M338.182,155.455L338.182,462.273L261.818,462.273L261.818,155.455L338.182,155.455ZM336.751,157.61L263.249,157.61L263.249,460.117L336.751,460.117L336.751,157.61Z" style="fill:rgb(212,212,212);"/>
                </g>
                <g transform="matrix(0.104762,0,0,0.00651852,-27.4286,28.9867)">
                    <rect x="261.818" y="155.455" width="76.364" height="306.818" style="fill:rgb(212,212,212);"/>
                </g>
            </g>
            <g transform="matrix(1.56267,0,0,1,29.1699,0)">
                <g transform="matrix(0.104762,0,0,0.104296,-27.4286,-16.2133)">
                    <rect x="261.818" y="155.455" width="76.364" height="306.818" style="fill:rgb(245,245,245);"/>
                    <path d="M338.182,155.455L338.182,462.273L261.818,462.273L261.818,155.455L338.182,155.455ZM336.751,157.61L263.249,157.61L263.249,460.117L336.751,460.117L336.751,157.61Z" style="fill:rgb(212,212,212);"/>
                </g>
                <g transform="matrix(0.104762,0,0,0.00651852,-27.4286,28.9867)">
                    <rect x="261.818" y="155.455" width="76.364" height="306.818" style="fill:rgb(212,212,212);"/>
                </g>
            </g>
            <g transform="matrix(1.56267,0,0,1,41.6712,0)">
                <g transform="matrix(0.104762,0,0,0.104296,-27.4286,-16.2133)">
                    <rect x="261.818" y="155.455" width="76.364" height="306.818" style="fill:rgb(245,245,245);"/>
                    <path d="M338.182,155.455L338.182,462.273L261.818,462.273L261.818,155.455L338.182,155.455ZM336.751,157.61L263.249,157.61L263.249,460.117L336.751,460.117L336.751,157.61Z" style="fill:rgb(212,212,212);"/>
                </g>
                <g transform="matrix(0.104762,0,0,0.00651852,-27.4286,28.9867)">
                    <rect x="261.818" y="155.455" width="76.364" height="306.818" style="fill:rgb(212,212,212);"/>
                </g>
            </g>
            <g transform="matrix(2.08356,0,0,1,54.1726,0)">
                <g transform="matrix(0.104762,0,0,0.104296,-27.4286,-16.2133)">
                    <rect x="261.818" y="155.455" width="76.364" height="306.818" style="fill:rgb(245,245,245);"/>
                    <path d="M338.182,155.455L338.182,462.273L261.818,462.273L261.818,155.455L338.182,155.455ZM337.109,157.61L262.891,157.61C262.891,157.61 262.891,460.117 262.891,460.117L337.109,460.117L337.109,157.61Z" style="fill:rgb(212,212,212);"/>
                </g>
                <g transform="matrix(0.104762,0,0,0.00651852,-27.4286,28.9867)">
                    <rect x="261.818" y="155.455" width="76.364" height="306.818" style="fill:rgb(212,212,212);"/>
                </g>
            </g>
            <g transform="matrix(2.08356,0,0,1,70.8411,0)">
                <g transform="matrix(0.104762,0,0,0.104296,-27.4286,-16.2133)">
                    <rect x="261.818" y="155.455" width="76.364" height="306.818" style="fill:rgb(245,245,245);"/>
                    <path d="M338.182,155.455L338.182,462.273L261.818,462.273L261.818,155.455L338.182,155.455ZM337.109,157.61L262.891,157.61C262.891,157.61 262.891,460.117 262.891,460.117L337.109,460.117L337.109,157.61Z" style="fill:rgb(212,212,212);"/>
                </g>
                <g transform="matrix(0.104762,0,0,0.00651852,-27.4286,28.9867)">
                    <rect x="261.818" y="155.455" width="76.364" height="306.818" style="fill:rgb(212,212,212);"/>
                </g>
            </g>
            <g transform="matrix(1.56267,0,0,1,87.5096,0)">
                <g transform="matrix(0.104762,0,0,0.104296,-27.4286,-16.2133)">
                    <rect x="261.818" y="155.455" width="76.364" height="306.818" style="fill:rgb(245,245,245);"/>
                    <path d="M338.182,155.455L338.182,462.273L261.818,462.273L261.818,155.455L338.182,155.455ZM336.751,157.61L263.249,157.61L263.249,460.117L336.751,460.117L336.751,157.61Z" style="fill:rgb(212,212,212);"/>
                </g>
                <g transform="matrix(0.104762,0,0,0.00651852,-27.4286,28.9867)">
                    <rect x="261.818" y="155.455" width="76.364" height="306.818" style="fill:rgb(212,212,212);"/>
                </g>
            </g>
            <g transform="matrix(1.56267,0,0,1,12.5014,-1.77636e-15)">
                <g transform="matrix(0.139683,0,0,0.104296,-36.5714,-16.2133)">
                    <rect x="261.818" y="155.455" width="76.364" height="306.818" style="fill:rgb(245,245,245);"/>
                    <path d="M338.182,155.455L338.182,462.273L261.818,462.273L261.818,155.455L338.182,155.455ZM337.109,157.61L262.891,157.61C262.891,157.61 262.891,460.117 262.891,460.117L337.109,460.117L337.109,157.61Z" style="fill:rgb(212,212,212);"/>
                </g>
                <g transform="matrix(0.139683,0,0,0.00651852,-36.5714,28.9867)">
                    <rect x="261.818" y="155.455" width="76.364" height="306.818" style="fill:rgb(212,212,212);"/>
                </g>
            </g>
            <g transform="matrix(1.04178,0,0,1,8.33425,0)">
                <g transform="matrix(0.104762,0,0,0.0651852,-27.4286,-10.1333)">
                    <rect x="261.818" y="155.455" width="76.364" height="306.818" style="fill:rgb(64,64,64);"/>
                </g>
                <g transform="matrix(0.104762,0,0,0.00651852,-27.4286,16.9867)">
                    <rect x="261.818" y="155.455" width="76.364" height="306.818" style="fill:rgb(38,38,38);"/>
                </g>
            </g>
            <g transform="matrix(1.04178,0,0,1,50.0055,0)">
                <g transform="matrix(0.104762,0,0,0.0651852,-27.4286,-10.1333)">
                    <rect x="261.818" y="155.455" width="76.364" height="306.818" style="fill:rgb(64,64,64);"/>
                </g>
                <g transform="matrix(0.104762,0,0,0.00651852,-27.4286,16.9867)">
                    <rect x="261.818" y="155.455" width="76.364" height="306.818" style="fill:rgb(38,38,38);"/>
                </g>
            </g>
            <g transform="matrix(1.04178,0,0,1,66.674,0)">
                <g transform="matrix(0.104762,0,0,0.0651852,-27.4286,-10.1333)">
                    <rect x="261.818" y="155.455" width="76.364" height="306.818" style="fill:rgb(64,64,64);"/>
                </g>
                <g transform="matrix(0.104762,0,0,0.00651852,-27.4286,16.9867)">
                    <rect x="261.818" y="155.455" width="76.364" height="306.818" style="fill:rgb(38,38,38);"/>
                </g>
            </g>
            <g transform="matrix(1.04178,0,0,1,83.3425,0)">
                <g transform="matrix(0.104762,0,0,0.0651852,-27.4286,-10.1333)">
                    <rect x="261.818" y="155.455" width="76.364" height="306.818" style="fill:rgb(64,64,64);"/>
                </g>
                <g transform="matrix(0.104762,0,0,0.00651852,-27.4286,16.9867)">
                    <rect x="261.818" y="155.455" width="76.364" height="306.818" style="fill:rgb(38,38,38);"/>
                </g>
            </g>
            <g transform="matrix(1.04178,0,0,1,25.0027,0)">
                <g transform="matrix(0.104762,0,0,0.0651852,-27.4286,-10.1333)">
                    <rect x="261.818" y="155.455" width="76.364" height="306.818" style="fill:rgb(64,64,64);"/>
                </g>
                <g transform="matrix(0.104762,0,0,0.00651852,-27.4286,16.9867)">
                    <rect x="261.818" y="155.455" width="76.364" height="306.818" style="fill:rgb(38,38,38);"/>
                </g>
            </g>
        </g>
    </g>
</svg>
